<svg id="Layer_1" enable-background="new 0 0 100 100" viewBox="0 0 100 100" xmlns="http://www.w3.org/2000/svg"><path d="m53.8253174 46.2124481c-2.7631531-2.7433739-6.3415565-4.3136902-10.1185837-4.4131851-3.5981789-.1193924-7.0175133 1.1927223-9.4626503 3.6577568l-17.9909 17.9907799c-11.987381 12.8622055 7.4548035 32.3439407 20.3366642 20.2971039l7.0571899-7.0570679c4.6915283-4.552475 11.5897675 2.3456421 7.0175133 7.0371704l-7.0571899 7.0570679c-22.7421246 21.0127411-55.3047133-12.0269318-34.3915892-34.3714447l17.991024-17.9907799c8.806591-9.2044468 24.8691216-8.4288769 33.6360359.7750893 4.5125609 4.7116661-2.3258638 11.5301895-7.0175142 7.0175094z"/><path d="m90.2644272 44.1250076-18.9848709 18.9849968c-4.572258 4.5723763-10.6752701 7.0971031-17.1957932 7.0971031-6.5005074 0-12.6234207-2.5247269-17.1956749-7.0971031-4.5126801-4.6915283 2.3457642-11.5898895 7.0173912-7.0175133 5.3674812 5.5066528 14.9890823 5.5066528 20.3565598 0l18.9848785-18.9849968c12.9813538-13.9156303-6.4608307-33.2981185-20.3167648-20.3565616l-9.502449 9.5223465c-4.6517296 4.5723763-11.6095428-2.3854408-7.0372887-7.0374126l9.5222244-9.5022039c23.6367226-21.907219 56.2590065 10.7747621 34.3517876 34.3913449z"/></svg>