<svg id="Layer_1" enable-background="new 0 0 512 512" height="512" viewBox="0 0 512 512" width="512" xmlns="http://www.w3.org/2000/svg"><path clip-rule="evenodd" d="m170.14 235.616c11.898 2.832 23.262 7.549 33.677 13.962l21.884-9.719 25.792 25.791-9.716 21.877c6.415 10.417 11.132 21.785 13.964 33.686l22.326 8.594v36.475l-22.332 8.596c-2.832 11.898-7.549 23.262-13.962 33.677l9.719 21.883-25.792 25.793-21.877-9.716c-10.416 6.415-21.785 11.132-33.686 13.964l-8.593 22.327h-36.474l-8.596-22.332c-11.898-2.831-23.262-7.549-33.677-13.962l-21.884 9.719-25.792-25.792 9.716-21.877c-6.415-10.417-11.132-21.785-13.964-33.686l-22.327-8.594v-36.475l22.33-8.595c2.831-11.9 7.549-23.265 13.962-33.68l-9.718-21.882 25.792-25.792 21.884 9.719c10.415-6.413 21.779-11.13 33.677-13.962l8.596-22.332h36.475zm-23.331-94.447c2.663 1.298 4.499 4.032 4.499 7.195 0 2.635-1.274 4.972-3.24 6.43l-32.32 26.995c-3.383 2.83-8.419 2.383-11.25-1-2.83-3.383-2.383-8.419 1-11.25l14.033-11.721c-14.61 1.801-28.696 5.24-42.066 10.128-21.273 7.777-40.794 19.231-57.796 33.596-3.365 2.848-8.402 2.428-11.25-.937s-2.428-8.402.937-11.25c18.407-15.552 39.575-27.965 62.671-36.408 13.675-4.999 28.009-8.603 42.826-10.64l-16.865-8.957c-3.9-2.071-5.383-6.912-3.313-10.813s6.912-5.384 10.812-3.313zm336.154 335.811c-2.019 3.918-6.832 5.457-10.75 3.438s-5.457-6.832-3.438-10.75l8.984-17.38c-.995.462-1.998.913-3.007 1.354-9.481 4.144-19.581 7.358-30.207 9.503-19.352 3.907-38.568 3.86-56.811.417-18.987-3.584-36.926-10.827-52.878-21.106-3.711-2.381-4.788-7.32-2.406-11.031 2.381-3.711 7.32-4.788 11.031-2.406 14.265 9.192 30.275 15.663 47.191 18.856 16.326 3.081 33.493 3.129 50.748-.355 9.418-1.901 18.433-4.777 26.957-8.503 1.315-.575 2.619-1.171 3.91-1.787l-17.936-1.626c-4.384-.397-7.616-4.273-7.219-8.656.397-4.384 4.273-7.616 8.656-7.219l41.879 3.796c2.407.058 4.761 1.199 6.283 3.299 1.911 2.638 1.976 6.051.441 8.699zm-19.53-405.895c3.641 2.485 4.579 7.452 2.094 11.094-2.485 3.641-7.452 4.579-11.094 2.094l-16.613-11.303c.927 2.923 1.765 5.882 2.513 8.874 2.943 11.781 4.505 24.075 4.505 36.697 0 10.45-1.088 20.732-3.159 30.732-2.119 10.233-5.264 20.072-9.321 29.404-1.76 4.039-6.462 5.885-10.5 4.125-4.039-1.76-5.885-6.462-4.125-10.5 3.63-8.35 6.438-17.124 8.321-26.216 1.825-8.814 2.784-18.025 2.784-27.544 0-11.355-1.389-22.349-4.005-32.822-.685-2.741-1.451-5.445-2.297-8.112l-3.614 16.895c-.915 4.315-5.154 7.071-9.469 6.156s-7.071-5.154-6.156-9.469l8.907-41.644c.211-.989.613-1.956 1.219-2.844 2.485-3.641 7.452-4.579 11.094-2.094zm-169.556 5.281c-23.294 0-42.174 18.88-42.174 42.175 0 23.294 18.88 42.174 42.174 42.174s42.175-18.88 42.175-42.174-18.88-42.175-42.175-42.175zm17.79-32.365c7.889 1.877 15.423 5.005 22.328 9.257l14.509-6.444 17.1 17.1-6.442 14.504c4.253 6.906 7.381 14.443 9.258 22.334l14.802 5.698v24.183l-14.806 5.699c-1.877 7.889-5.005 15.423-9.256 22.328l6.444 14.509-17.1 17.1-14.504-6.443c-6.906 4.253-14.443 7.381-22.334 9.258l-5.698 14.803h-24.183l-5.699-14.806c-7.889-1.877-15.423-5.005-22.328-9.257l-14.509 6.444-17.1-17.1 6.442-14.504c-4.253-6.906-7.38-14.443-9.258-22.334l-14.802-5.697v-24.183l14.805-5.699c1.877-7.889 5.005-15.425 9.257-22.33l-6.443-14.507 17.1-17.1 14.509 6.444c6.905-4.251 14.439-7.379 22.328-9.257l5.699-14.806h24.183zm103.534 224.271c-23.294 0-42.174 18.88-42.174 42.175 0 23.294 18.88 42.174 42.174 42.174s42.175-18.88 42.175-42.174c0-23.295-18.88-42.175-42.175-42.175zm17.791-32.365c7.888 1.877 15.423 5.005 22.328 9.257l14.509-6.444 17.1 17.1-6.442 14.504c4.253 6.906 7.381 14.443 9.258 22.334l14.803 5.697v24.183l-14.806 5.699c-1.877 7.889-5.005 15.423-9.257 22.328l6.444 14.509-17.1 17.1-14.504-6.442c-6.906 4.253-14.443 7.381-22.334 9.258l-5.698 14.802h-24.183l-5.699-14.806c-7.889-1.877-15.423-5.005-22.328-9.257l-14.509 6.444-17.1-17.1 6.442-14.504c-4.253-6.906-7.38-14.443-9.258-22.334l-14.802-5.698v-24.183l14.805-5.699c1.877-7.889 5.005-15.424 9.257-22.329l-6.443-14.507 17.1-17.1 14.509 6.444c6.905-4.252 14.439-7.379 22.328-9.257l5.699-14.806h24.183zm-289.685 42.964c-38.206 0-69.172 30.966-69.172 69.173 0 38.206 30.966 69.172 69.172 69.172 38.207 0 69.173-30.966 69.173-69.172s-30.966-69.173-69.173-69.173z" fill-rule="evenodd"/></svg>