<svg id="Layer_1" enable-background="new 0 0 24 24" height="512" viewBox="0 0 24 24" width="512" xmlns="http://www.w3.org/2000/svg"><g><g><path d="m12 23c-6.1 0-11-4.9-11-11 0-.6.4-1 1-1s1 .4 1 1c0 4 2.6 7.3 6.1 8.5l-.3-.3c-.4-.4-.4-1 0-1.4s1-.4 1.4 0l2.5 2.5c.3.3.4.7.2 1.1-.1.4-.5.6-.9.6z" fill="rgb(0,0,0)"/></g><g><path d="m22 13c-.6 0-1-.4-1-1 0-4-2.6-7.3-6.1-8.5l.3.3c.4.4.4 1 0 1.4s-1 .4-1.4 0l-2.5-2.5c-.3-.3-.4-.7-.2-1.1.1-.4.5-.6.9-.6 6.1 0 11 4.9 11 11 0 .6-.4 1-1 1z" fill="rgb(0,0,0)"/></g><g><path d="m15 21.5c-.3 0-.5-.1-.7-.3l-11.5-11.5c-.4-.4-.4-1 0-1.4l5.5-5.5c.4-.4 1-.4 1.4 0l11.5 11.5c.4.4.4 1 0 1.4l-5.5 5.5c-.2.2-.4.3-.7.3zm-10.1-12.5 10.1 10.1 4.1-4.1-10.1-10.1z" fill="rgb(0,0,0)"/></g></g></svg>