<svg id="Layer_1" height="512" viewBox="0 0 32 32" width="512" xmlns="http://www.w3.org/2000/svg" data-name="Layer 1"><g fill="rgb(0,0,0)"><path d="m17 13a1 1 0 0 0 0-2h-4a1 1 0 0 0 -1 1v8a1 1 0 0 0 1 1h4a1 1 0 0 0 0-2h-3v-2h2a1 1 0 0 0 0-2h-2v-2z"/><path d="m10 21a1 1 0 0 0 .28 0 1 1 0 0 0 .72-1v-8a1 1 0 0 0 -2 0v4.51l-3.15-5a1 1 0 0 0 -1.13-.51 1 1 0 0 0 -.72 1v8a1 1 0 0 0 2 0v-4.51l3.15 5a1 1 0 0 0 .85.51z"/><path d="m27.11 11a1 1 0 0 0 -1.1.88l-.52 4.74-1.1-2.09a1 1 0 0 0 -1.78 0l-1.1 2.09-.51-4.73a1 1 0 1 0 -2 .22l.87 8a1 1 0 0 0 1.88.35l1.74-3.31 1.74 3.31a1 1 0 0 0 .89.54h.18a1 1 0 0 0 .81-.87l.87-8a1 1 0 0 0 -.87-1.13z"/><path d="m16 7a1 1 0 0 0 1-1v-3a1 1 0 0 0 -2 0v3a1 1 0 0 0 1 1z"/><path d="m9.87 4.38a1 1 0 1 0 -1.74 1l1.5 2.62a1 1 0 0 0 1.74-1z"/><path d="m21 8.34a1 1 0 0 0 1.37-.34l1.5-2.59a1 1 0 0 0 -1.74-1l-1.5 2.59a1 1 0 0 0 .37 1.34z"/><path d="m16 25a1 1 0 0 0 -1 1v3a1 1 0 0 0 2 0v-3a1 1 0 0 0 -1-1z"/><path d="m22.37 24a1 1 0 1 0 -1.74 1l1.5 2.59a1 1 0 0 0 .87.5 1 1 0 0 0 .87-1.5z"/><path d="m11 23.66a1 1 0 0 0 -1.37.34l-1.5 2.59a1 1 0 0 0 .87 1.53 1 1 0 0 0 .87-.5l1.5-2.62a1 1 0 0 0 -.37-1.34z"/></g></svg>